<?xml version="1.0" encoding="utf-8"?>
<!-- Generator: Adobe Illustrator 19.0.0, SVG Export Plug-In . SVG Version: 6.00 Build 0)  -->
<svg version="1.1" id="图层_1" xmlns="http://www.w3.org/2000/svg" xmlns:xlink="http://www.w3.org/1999/xlink" x="0px" y="0px"
	 viewBox="0 0 500 500" style="enable-background:new 0 0 500 500;" xml:space="preserve">
<g id="XMLID_15_">
	<path id="XMLID_38_" d="M13.8,91.4v317.3h141V91.4H13.8z M139.8,393.6h-111V106.4h111V393.6z"/>
	<path id="XMLID_41_" d="M343.6,91.4v317.3h141V91.4H343.6z M469.6,393.6h-111V106.4h111V393.6z"/>
	<path id="XMLID_44_" d="M174.1,91.4v317.3h141V91.4H174.1z M300.1,393.6h-111V106.4h111V393.6z"/>
	<path id="XMLID_47_" d="M10.3,432.5h89.8v40.7h122.2v-40.7h53.4v40.7h122.2v-40.7h91.6v-15H10.3V432.5z M207.4,458.2h-92.2v-25.7
		h92.2V458.2z M383.1,458.2h-92.2v-25.7h92.2V458.2z"/>
	<polygon id="XMLID_49_" points="421.6,67.5 421.6,37 406.6,37 406.6,67.5 252.1,67.5 252.1,37 237.1,37 237.1,67.5 106.5,67.5 
		106.5,37 91.5,37 91.5,67.5 10.3,67.5 10.3,82.5 489.7,82.5 489.7,67.5 	"/>
</g>
</svg>
